<svg xmlns="http://www.w3.org/2000/svg" viewBox="0 0 64 64" width="64" height="64">
  <!-- Cat Face Icon for Kayko -->
  
  <!-- Left Ear -->
  <path class="cat-ear cat-ear-left" d="M8 24 L16 8 L24 24 Z" fill="#FFB84D" stroke="#E59400" stroke-width="1.5"/>
  <path class="cat-ear-inner" d="M12 22 L16 12 L20 22 Z" fill="#FFD699"/>
  
  <!-- Right Ear -->
  <path class="cat-ear cat-ear-right" d="M40 24 L48 8 L56 24 Z" fill="#FFB84D" stroke="#E59400" stroke-width="1.5"/>
  <path class="cat-ear-inner" d="M44 22 L48 12 L52 22 Z" fill="#FFD699"/>
  
  <!-- Head -->
  <ellipse class="cat-head" cx="32" cy="38" rx="24" ry="20" fill="#FFB84D" stroke="#E59400" stroke-width="1.5"/>
  
  <!-- Left Eye -->
  <ellipse class="cat-eye cat-eye-left" cx="22" cy="36" rx="5" ry="6" fill="#2D3748"/>
  <ellipse class="cat-eye-shine" cx="20" cy="34" rx="2" ry="2" fill="white" opacity="0.8"/>
  
  <!-- Right Eye -->
  <ellipse class="cat-eye cat-eye-right" cx="42" cy="36" rx="5" ry="6" fill="#2D3748"/>
  <ellipse class="cat-eye-shine" cx="40" cy="34" rx="2" ry="2" fill="white" opacity="0.8"/>
  
  <!-- Nose -->
  <path class="cat-nose" d="M32 42 L29 46 L35 46 Z" fill="#FF8FA3"/>
  
  <!-- Mouth (omega shape ω) -->
  <path class="cat-mouth" d="M26 48 Q29 52 32 48 Q35 52 38 48" fill="none" stroke="#2D3748" stroke-width="1.5" stroke-linecap="round"/>
  
  <!-- Whiskers Left -->
  <line class="cat-whisker" x1="4" y1="40" x2="18" y2="42" stroke="#E59400" stroke-width="1" stroke-linecap="round"/>
  <line class="cat-whisker" x1="4" y1="46" x2="18" y2="46" stroke="#E59400" stroke-width="1" stroke-linecap="round"/>
  <line class="cat-whisker" x1="4" y1="52" x2="18" y2="50" stroke="#E59400" stroke-width="1" stroke-linecap="round"/>
  
  <!-- Whiskers Right -->
  <line class="cat-whisker" x1="60" y1="40" x2="46" y2="42" stroke="#E59400" stroke-width="1" stroke-linecap="round"/>
  <line class="cat-whisker" x1="60" y1="46" x2="46" y2="46" stroke="#E59400" stroke-width="1" stroke-linecap="round"/>
  <line class="cat-whisker" x1="60" y1="52" x2="46" y2="50" stroke="#E59400" stroke-width="1" stroke-linecap="round"/>
</svg>

