<svg xmlns="http://www.w3.org/2000/svg" viewBox="0 0 64 64" width="64" height="64">
  <!-- Kayko Cat Favicon - Optimized for small sizes -->
  
  <!-- Left Ear -->
  <path d="M8 20 L16 6 L24 20 Z" fill="#FFB84D" stroke="#E59400" stroke-width="1.2"/>
  <path d="M11 18 L16 10 L21 18 Z" fill="#FFD699"/>
  
  <!-- Right Ear -->
  <path d="M40 20 L48 6 L56 20 Z" fill="#FFB84D" stroke="#E59400" stroke-width="1.2"/>
  <path d="M43 18 L48 10 L53 18 Z" fill="#FFD699"/>
  
  <!-- Head -->
  <ellipse cx="32" cy="36" rx="22" ry="18" fill="#FFB84D" stroke="#E59400" stroke-width="1.2"/>
  
  <!-- Left Eye -->
  <ellipse cx="22" cy="34" rx="4.5" ry="5.5" fill="#2D3748"/>
  <ellipse cx="20" cy="32" rx="1.8" ry="1.8" fill="white" opacity="0.9"/>
  
  <!-- Right Eye -->
  <ellipse cx="42" cy="34" rx="4.5" ry="5.5" fill="#2D3748"/>
  <ellipse cx="40" cy="32" rx="1.8" ry="1.8" fill="white" opacity="0.9"/>
  
  <!-- Nose -->
  <path d="M32 40 L29.5 44 L34.5 44 Z" fill="#FF8FA3"/>
  
  <!-- Mouth (simplified omega shape) -->
  <path d="M26 46 Q29 49 32 46 Q35 49 38 46" fill="none" stroke="#2D3748" stroke-width="1.3" stroke-linecap="round"/>
  
  <!-- Simplified whiskers (only 2 per side for clarity at small size) -->
  <line x1="4" y1="36" x2="18" y2="37" stroke="#E59400" stroke-width="1" stroke-linecap="round"/>
  <line x1="4" y1="44" x2="18" y2="44" stroke="#E59400" stroke-width="1" stroke-linecap="round"/>
  <line x1="60" y1="36" x2="46" y2="37" stroke="#E59400" stroke-width="1" stroke-linecap="round"/>
  <line x1="60" y1="44" x2="46" y2="44" stroke="#E59400" stroke-width="1" stroke-linecap="round"/>
</svg>

